<svg xmlns="http://www.w3.org/2000/svg" viewBox="-95 -95 190 190" width="100" height="100" >
  <defs>
    <mask id="mfav">
      <path d="M 0,-88 A 88,88 0 0,1 83.70,-27.19 Z" fill="white"/>
      <path d="M 83.70,-27.19 A 88,88 0 0,1 51.76,71.27 Z" fill="white"/>
      <path d="M 51.76,71.27 A 88,88 0 0,1 -51.76,71.27 Z" fill="white"/>
      <path d="M -51.76,71.27 A 88,88 0 0,1 -83.70,-27.19 Z" fill="white"/>
      <path d="M -83.70,-27.19 A 88,88 0 0,1 0,-88 Z" fill="white"/>
      <path d="M 0,0 L 0,-88 L 83.70,-27.19 Z" fill="white"/>
      <path d="M 0,0 L 83.70,-27.19 L 51.76,71.27 Z" fill="white"/>
      <path d="M 0,0 L 51.76,71.27 L -51.76,71.27 Z" fill="white"/>
      <path d="M 0,0 L -51.76,71.27 L -83.70,-27.19 Z" fill="white"/>
      <path d="M 0,0 L -83.70,-27.19 L 0,-88 Z" fill="white"/>
      <circle cx="0" cy="0" r="71.19" fill="black"/>
      <polygon points="0,-88 83.70,-27.19 51.76,71.27 -51.76,71.27 -83.70,-27.19" fill="none" stroke="black" stroke-width="10" stroke-linejoin="round"/>
    </mask>
  </defs>
  <rect x="-95" y="-95" width="190" height="190" fill="#5DA8D0" mask="url(#mfav)"/>
  <text x="0" y="10" text-anchor="middle" font-family="Georgia,serif" font-size="28" font-style="italic" fill="#F2C94C">ℚ(√5)</text>
</svg>